<svg width="50" height="47" viewBox="0 0 50 47" fill="none" xmlns="http://www.w3.org/2000/svg">
    <path
        d="M22.2356 0C14.4278 0 8.54418 1.98019 5.13037 5.39899C1.44616 9.08858 0 13.5277 0 18.6003C0 26.6444 4.06567 35.2832 9.73925 40.9554C11.2216 42.44 16.3399 47 23.0396 47C29.8938 47 34.9903 42.8075 38.1917 39.5991C44.3868 33.3901 50 22.6985 50 15.7134C50 11.7917 48.2158 9.11518 46.8493 7.7467C41.4606 2.35254 29.8914 0 22.2356 0ZM31.7141 27.8049C29.1284 30.3944 26.6296 31.3664 24.2081 31.3664C21.828 31.3243 19.5539 30.3729 17.8513 28.7068C16.1999 27.0506 14.6717 24.2943 14.6717 21.4388C14.6717 18.5834 15.7991 16.5717 17.1053 15.2637C18.7711 13.5954 21.2723 12.4179 24.9928 12.4179C27.931 12.4179 30.6301 13.107 33.0686 15.5611C33.69 16.1804 34.1811 16.9183 34.5129 17.731C34.8446 18.5437 35.0103 19.4148 35 20.2928C34.9928 22.036 34.3071 25.2251 31.7117 27.8146L31.7141 27.8049Z"
        fill="white"></path>
</svg>